<svg width="135" height="55" viewBox="0 0 135 55" fill="none" xmlns="http://www.w3.org/2000/svg">
<path d="M5.2435 12.224C4.33683 12.224 3.45683 12.112 2.6035 11.888C1.75017 11.664 1.05683 11.3653 0.523499 10.992L1.5635 8.656C2.06483 8.98667 2.64617 9.25334 3.3075 9.456C3.96883 9.65867 4.6195 9.76 5.2595 9.76C6.4755 9.76 7.0835 9.456 7.0835 8.848C7.0835 8.528 6.9075 8.29334 6.5555 8.144C6.21417 7.984 5.6595 7.81867 4.8915 7.648C4.04883 7.46667 3.34483 7.27467 2.7795 7.072C2.21417 6.85867 1.72883 6.52267 1.3235 6.064C0.918165 5.60534 0.715499 4.98667 0.715499 4.208C0.715499 3.52534 0.902165 2.912 1.2755 2.368C1.64883 1.81334 2.2035 1.376 2.9395 1.056C3.68617 0.736004 4.59817 0.576004 5.6755 0.576004C6.4115 0.576004 7.13683 0.661338 7.8515 0.832005C8.56617 0.992004 9.1955 1.232 9.7395 1.552L8.7635 3.904C7.69683 3.328 6.66217 3.04 5.6595 3.04C5.03017 3.04 4.5715 3.136 4.2835 3.328C3.9955 3.50934 3.8515 3.74934 3.8515 4.048C3.8515 4.34667 4.02217 4.57067 4.3635 4.72C4.70483 4.86934 5.25417 5.024 6.0115 5.184C6.86483 5.36534 7.56883 5.56267 8.1235 5.776C8.68883 5.97867 9.17417 6.30934 9.5795 6.768C9.9955 7.216 10.2035 7.82934 10.2035 8.608C10.2035 9.28 10.0168 9.888 9.6435 10.432C9.27017 10.976 8.71017 11.4133 7.9635 11.744C7.21683 12.064 6.31017 12.224 5.2435 12.224Z" fill="white"/>
<path d="M13.8946 3.312H10.4546V0.800004H20.4866V3.312H17.0626V12H13.8946V3.312Z" fill="white"/>
<path d="M28.6084 9.824H23.8724L22.9924 12H19.7604L24.7044 0.800004H27.8244L32.7844 12H29.4884L28.6084 9.824ZM27.6804 7.488L26.2404 3.904L24.8004 7.488H27.6804Z" fill="white"/>
<path d="M35.504 3.312H32.064V0.800004H42.096V3.312H38.672V12H35.504V3.312Z" fill="white"/>
<path d="M52.2682 9.552V12H43.2762V0.800004H52.0602V3.248H46.4123V5.136H51.3883V7.504H46.4123V9.552H52.2682Z" fill="white"/>
<path d="M64.6823 0.800004V12H62.0742L57.1302 6.032V12H54.0262V0.800004H56.6343L61.5783 6.768V0.800004H64.6823Z" fill="white"/>
<path d="M71.5731 0.800004H74.7411V12H71.5731V0.800004Z" fill="white"/>
<path d="M80.931 12.224C80.0243 12.224 79.1443 12.112 78.291 11.888C77.4377 11.664 76.7443 11.3653 76.211 10.992L77.251 8.656C77.7523 8.98667 78.3337 9.25334 78.995 9.456C79.6563 9.65867 80.307 9.76 80.947 9.76C82.163 9.76 82.771 9.456 82.771 8.848C82.771 8.528 82.595 8.29334 82.243 8.144C81.9017 7.984 81.347 7.81867 80.579 7.648C79.7363 7.46667 79.0323 7.27467 78.467 7.072C77.9017 6.85867 77.4163 6.52267 77.011 6.064C76.6057 5.60534 76.403 4.98667 76.403 4.208C76.403 3.52534 76.5897 2.912 76.963 2.368C77.3363 1.81334 77.891 1.376 78.627 1.056C79.3737 0.736004 80.2857 0.576004 81.363 0.576004C82.099 0.576004 82.8243 0.661338 83.539 0.832005C84.2537 0.992004 84.883 1.232 85.427 1.552L84.451 3.904C83.3843 3.328 82.3497 3.04 81.347 3.04C80.7177 3.04 80.259 3.136 79.971 3.328C79.683 3.50934 79.539 3.74934 79.539 4.048C79.539 4.34667 79.7097 4.57067 80.051 4.72C80.3923 4.86934 80.9417 5.024 81.699 5.184C82.5523 5.36534 83.2563 5.56267 83.811 5.776C84.3763 5.97867 84.8617 6.30934 85.267 6.768C85.683 7.216 85.891 7.82934 85.891 8.608C85.891 9.28 85.7043 9.888 85.331 10.432C84.9577 10.976 84.3977 11.4133 83.651 11.744C82.9043 12.064 81.9977 12.224 80.931 12.224Z" fill="white"/>
<path d="M87.3544 0.800004H90.5224V9.488H95.8664V12H87.3544V0.800004Z" fill="white"/>
<path d="M104.749 9.824H100.013L99.133 12H95.901L100.845 0.800004H103.965L108.925 12H105.629L104.749 9.824ZM103.821 7.488L102.381 3.904L100.941 7.488H103.821Z" fill="white"/>
<path d="M120.479 0.800004V12H117.871L112.927 6.032V12H109.823V0.800004H112.431L117.375 6.768V0.800004H120.479Z" fill="white"/>
<path d="M122.714 0.800004H128.01C129.236 0.800004 130.324 1.02934 131.274 1.488C132.223 1.94667 132.959 2.59734 133.482 3.44C134.004 4.28267 134.266 5.26934 134.266 6.4C134.266 7.53067 134.004 8.51734 133.482 9.36C132.959 10.2027 132.223 10.8533 131.274 11.312C130.324 11.7707 129.236 12 128.01 12H122.714V0.800004ZM127.882 9.472C128.842 9.472 129.61 9.2 130.186 8.656C130.772 8.112 131.066 7.36 131.066 6.4C131.066 5.44 130.772 4.688 130.186 4.144C129.61 3.6 128.842 3.328 127.882 3.328H125.882V9.472H127.882Z" fill="white"/>
<path d="M16.2288 42.1V54H12.8628V49.359H8.2728V54H4.9068V42.1H8.2728V46.571H12.8628V42.1H16.2288Z" fill="white"/>
<path d="M18.6031 42.1H21.9691V54H18.6031V42.1Z" fill="white"/>
<path d="M32.3368 47.795H35.3118V52.725C34.6318 53.2123 33.8498 53.5863 32.9658 53.847C32.0818 54.1077 31.1978 54.238 30.3138 54.238C29.0672 54.238 27.9452 53.9773 26.9478 53.456C25.9505 52.9233 25.1685 52.1867 24.6018 51.246C24.0352 50.3053 23.7518 49.24 23.7518 48.05C23.7518 46.86 24.0352 45.7947 24.6018 44.854C25.1685 43.9133 25.9562 43.1823 26.9648 42.661C27.9735 42.1283 29.1125 41.862 30.3818 41.862C31.4925 41.862 32.4898 42.049 33.3738 42.423C34.2578 42.797 34.9945 43.3353 35.5838 44.038L33.4418 45.976C32.6372 45.092 31.6738 44.65 30.5518 44.65C29.5318 44.65 28.7102 44.9617 28.0868 45.585C27.4635 46.197 27.1518 47.0187 27.1518 48.05C27.1518 48.7073 27.2935 49.2967 27.5768 49.818C27.8602 50.328 28.2568 50.7303 28.7668 51.025C29.2768 51.3083 29.8605 51.45 30.5178 51.45C31.1638 51.45 31.7702 51.3197 32.3368 51.059V47.795Z" fill="white"/>
<path d="M48.7679 42.1V54H45.4019V49.359H40.8119V54H37.4459V42.1H40.8119V46.571H45.4019V42.1H48.7679Z" fill="white"/>
<path d="M60.2714 54.238C59.3081 54.238 58.3731 54.119 57.4664 53.881C56.5598 53.643 55.8231 53.3257 55.2564 52.929L56.3614 50.447C56.8941 50.7983 57.5117 51.0817 58.2144 51.297C58.9171 51.5123 59.6084 51.62 60.2884 51.62C61.5804 51.62 62.2264 51.297 62.2264 50.651C62.2264 50.311 62.0394 50.0617 61.6654 49.903C61.3027 49.733 60.7134 49.5573 59.8974 49.376C59.0021 49.1833 58.2541 48.9793 57.6534 48.764C57.0528 48.5373 56.5371 48.1803 56.1064 47.693C55.6758 47.2057 55.4604 46.5483 55.4604 45.721C55.4604 44.9957 55.6587 44.344 56.0554 43.766C56.4521 43.1767 57.0414 42.712 57.8234 42.372C58.6168 42.032 59.5858 41.862 60.7304 41.862C61.5124 41.862 62.2831 41.9527 63.0424 42.134C63.8018 42.304 64.4704 42.559 65.0484 42.899L64.0114 45.398C62.8781 44.786 61.7788 44.48 60.7134 44.48C60.0448 44.48 59.5574 44.582 59.2514 44.786C58.9454 44.9787 58.7924 45.2337 58.7924 45.551C58.7924 45.8683 58.9738 46.1063 59.3364 46.265C59.6991 46.4237 60.2828 46.588 61.0874 46.758C61.9941 46.9507 62.7421 47.1603 63.3314 47.387C63.9321 47.6023 64.4478 47.9537 64.8784 48.441C65.3204 48.917 65.5414 49.5687 65.5414 50.396C65.5414 51.11 65.3431 51.756 64.9464 52.334C64.5497 52.912 63.9548 53.3767 63.1614 53.728C62.3681 54.068 61.4048 54.238 60.2714 54.238Z" fill="white"/>
<path d="M73.0293 54.238C71.7826 54.238 70.6606 53.9773 69.6633 53.456C68.6773 52.9233 67.9009 52.1867 67.3343 51.246C66.7676 50.3053 66.4843 49.24 66.4843 48.05C66.4843 46.86 66.7676 45.7947 67.3343 44.854C67.9009 43.9133 68.6773 43.1823 69.6633 42.661C70.6606 42.1283 71.7826 41.862 73.0293 41.862C74.1173 41.862 75.0976 42.0547 75.9703 42.44C76.8429 42.8253 77.5682 43.3807 78.1462 44.106L76.0042 46.044C75.2336 45.1147 74.2986 44.65 73.1992 44.65C72.5532 44.65 71.9752 44.7917 71.4652 45.075C70.9666 45.3583 70.5756 45.7607 70.2923 46.282C70.0203 46.792 69.8842 47.3813 69.8842 48.05C69.8842 48.7187 70.0203 49.3137 70.2923 49.835C70.5756 50.345 70.9666 50.7417 71.4652 51.025C71.9752 51.3083 72.5532 51.45 73.1992 51.45C74.2986 51.45 75.2336 50.9853 76.0042 50.056L78.1462 51.994C77.5682 52.7193 76.8429 53.2747 75.9703 53.66C75.0976 54.0453 74.1173 54.238 73.0293 54.238Z" fill="white"/>
<path d="M90.969 42.1V54H87.603V49.359H83.013V54H79.647V42.1H83.013V46.571H87.603V42.1H90.969Z" fill="white"/>
<path d="M99.3443 54.238C98.0863 54.238 96.953 53.9717 95.9443 53.439C94.947 52.9063 94.1593 52.1697 93.5813 51.229C93.0147 50.2883 92.7313 49.2287 92.7313 48.05C92.7313 46.8713 93.0147 45.8117 93.5813 44.871C94.1593 43.9303 94.947 43.1937 95.9443 42.661C96.953 42.1283 98.0863 41.862 99.3443 41.862C100.602 41.862 101.73 42.1283 102.727 42.661C103.736 43.1937 104.524 43.9303 105.09 44.871C105.668 45.8117 105.957 46.8713 105.957 48.05C105.957 49.2287 105.668 50.2883 105.09 51.229C104.524 52.1697 103.736 52.9063 102.727 53.439C101.73 53.9717 100.602 54.238 99.3443 54.238ZM99.3443 51.45C99.945 51.45 100.489 51.3083 100.976 51.025C101.464 50.7417 101.849 50.345 102.132 49.835C102.416 49.3137 102.557 48.7187 102.557 48.05C102.557 47.3813 102.416 46.792 102.132 46.282C101.849 45.7607 101.464 45.3583 100.976 45.075C100.489 44.7917 99.945 44.65 99.3443 44.65C98.7437 44.65 98.1997 44.7917 97.7123 45.075C97.225 45.3583 96.8397 45.7607 96.5563 46.282C96.273 46.792 96.1313 47.3813 96.1313 48.05C96.1313 48.7187 96.273 49.3137 96.5563 49.835C96.8397 50.345 97.225 50.7417 97.7123 51.025C98.1997 51.3083 98.7437 51.45 99.3443 51.45Z" fill="white"/>
<path d="M113.721 54.238C112.463 54.238 111.33 53.9717 110.321 53.439C109.324 52.9063 108.536 52.1697 107.958 51.229C107.392 50.2883 107.108 49.2287 107.108 48.05C107.108 46.8713 107.392 45.8117 107.958 44.871C108.536 43.9303 109.324 43.1937 110.321 42.661C111.33 42.1283 112.463 41.862 113.721 41.862C114.979 41.862 116.107 42.1283 117.104 42.661C118.113 43.1937 118.901 43.9303 119.467 44.871C120.045 45.8117 120.334 46.8713 120.334 48.05C120.334 49.2287 120.045 50.2883 119.467 51.229C118.901 52.1697 118.113 52.9063 117.104 53.439C116.107 53.9717 114.979 54.238 113.721 54.238ZM113.721 51.45C114.322 51.45 114.866 51.3083 115.353 51.025C115.841 50.7417 116.226 50.345 116.509 49.835C116.793 49.3137 116.934 48.7187 116.934 48.05C116.934 47.3813 116.793 46.792 116.509 46.282C116.226 45.7607 115.841 45.3583 115.353 45.075C114.866 44.7917 114.322 44.65 113.721 44.65C113.121 44.65 112.577 44.7917 112.089 45.075C111.602 45.3583 111.217 45.7607 110.933 46.282C110.65 46.792 110.508 47.3813 110.508 48.05C110.508 48.7187 110.65 49.3137 110.933 49.835C111.217 50.345 111.602 50.7417 112.089 51.025C112.577 51.3083 113.121 51.45 113.721 51.45Z" fill="white"/>
<path d="M122.097 42.1H125.463V51.331H131.141V54H122.097V42.1Z" fill="white"/>
<path d="M4.8893 23.054H0.159302V19.6H13.9533V23.054H9.2453V35H4.8893V23.054Z" fill="white"/>
<path d="M27.9401 31.634V35H15.5761V19.6H27.6541V22.966H19.8881V25.562H26.7301V28.818H19.8881V31.634H27.9401Z" fill="white"/>
<path d="M38.0354 35.308C36.4221 35.308 34.9701 34.9707 33.6794 34.296C32.4034 33.6067 31.3987 32.6533 30.6654 31.436C29.9321 30.2187 29.5654 28.84 29.5654 27.3C29.5654 25.76 29.9321 24.3813 30.6654 23.164C31.3987 21.9467 32.4034 21.0007 33.6794 20.326C34.9701 19.6367 36.4221 19.292 38.0354 19.292C39.4434 19.292 40.7121 19.5413 41.8414 20.04C42.9707 20.5387 43.9094 21.2573 44.6574 22.196L41.8854 24.704C40.8881 23.5013 39.6781 22.9 38.2554 22.9C37.4194 22.9 36.6714 23.0833 36.0114 23.45C35.3661 23.8167 34.8601 24.3373 34.4934 25.012C34.1414 25.672 33.9654 26.4347 33.9654 27.3C33.9654 28.1653 34.1414 28.9353 34.4934 29.61C34.8601 30.27 35.3661 30.7833 36.0114 31.15C36.6714 31.5167 37.4194 31.7 38.2554 31.7C39.6781 31.7 40.8881 31.0987 41.8854 29.896L44.6574 32.404C43.9094 33.3427 42.9707 34.0613 41.8414 34.56C40.7121 35.0587 39.4434 35.308 38.0354 35.308Z" fill="white"/>
<path d="M61.2516 19.6V35H56.8956V28.994H50.9556V35H46.5996V19.6H50.9556V25.386H56.8956V19.6H61.2516Z" fill="white"/>
<path d="M78.9762 19.6V35H75.3902L68.5922 26.794V35H64.3242V19.6H67.9102L74.7082 27.806V19.6H78.9762Z" fill="white"/>
<path d="M82.0488 19.6H86.4048V35H82.0488V19.6Z" fill="white"/>
<path d="M97.1819 35.308C95.5686 35.308 94.1165 34.9707 92.8259 34.296C91.5499 33.6067 90.5452 32.6533 89.8119 31.436C89.0785 30.2187 88.7119 28.84 88.7119 27.3C88.7119 25.76 89.0785 24.3813 89.8119 23.164C90.5452 21.9467 91.5499 21.0007 92.8259 20.326C94.1165 19.6367 95.5686 19.292 97.1819 19.292C98.5899 19.292 99.8586 19.5413 100.988 20.04C102.117 20.5387 103.056 21.2573 103.804 22.196L101.032 24.704C100.035 23.5013 98.8246 22.9 97.4019 22.9C96.5659 22.9 95.8179 23.0833 95.1579 23.45C94.5125 23.8167 94.0066 24.3373 93.6399 25.012C93.2879 25.672 93.1119 26.4347 93.1119 27.3C93.1119 28.1653 93.2879 28.9353 93.6399 29.61C94.0066 30.27 94.5125 30.7833 95.1579 31.15C95.8179 31.5167 96.5659 31.7 97.4019 31.7C98.8246 31.7 100.035 31.0987 101.032 29.896L103.804 32.404C103.056 33.3427 102.117 34.0613 100.988 34.56C99.8586 35.0587 98.5899 35.308 97.1819 35.308Z" fill="white"/>
<path d="M116.064 32.008H109.552L108.342 35H103.898L110.696 19.6H114.986L121.806 35H117.274L116.064 32.008ZM114.788 28.796L112.808 23.868L110.828 28.796H114.788Z" fill="white"/>
<path d="M123.041 19.6H127.397V31.546H134.745V35H123.041V19.6Z" fill="white"/>
</svg>
